<?xml version="1.0" encoding="utf-8" standalone="no"?>
<!DOCTYPE svg PUBLIC "-//W3C//DTD SVG 1.1//EN"
  "http://www.w3.org/Graphics/SVG/1.1/DTD/svg11.dtd">
<svg xmlns:xlink="http://www.w3.org/1999/xlink" width="1847.486625pt" height="606.274063pt" viewBox="0 0 1847.486625 606.274063" xmlns="http://www.w3.org/2000/svg" version="1.1">
 <metadata>
  <rdf:RDF xmlns:dc="http://purl.org/dc/elements/1.1/" xmlns:cc="http://creativecommons.org/ns#" xmlns:rdf="http://www.w3.org/1999/02/22-rdf-syntax-ns#">
   <cc:Work>
    <dc:type rdf:resource="http://purl.org/dc/dcmitype/StillImage"/>
    <dc:date>2025-09-24T10:58:43.528220</dc:date>
    <dc:format>image/svg+xml</dc:format>
    <dc:creator>
     <cc:Agent>
      <dc:title>Matplotlib v3.9.2, https://matplotlib.org/</dc:title>
     </cc:Agent>
    </dc:creator>
   </cc:Work>
  </rdf:RDF>
 </metadata>
 <defs>
  <style type="text/css">*{stroke-linejoin: round; stroke-linecap: butt}</style>
 </defs>
 <g id="figure_1">
  <g id="patch_1">
   <path d="M 0 606.274063 
L 1847.486625 606.274063 
L 1847.486625 0 
L 0 0 
z
" style="fill: #ffffff"/>
  </g>
  <g id="axes_1">
   <g id="patch_2">
    <path d="M 77.590625 484.982063 
L 652.195958 484.982063 
L 652.195958 50.074062 
L 77.590625 50.074062 
z
" style="fill: #fafafb"/>
   </g>
   <g id="matplotlib.axis_1">
    <g id="xtick_1">
     <g id="text_1">
      <!-- 5 -->
      <g style="fill: #262626" transform="translate(95.437799 517.238) scale(0.26 -0.26)">
       <defs>
        <path id="DejaVuSans-35" d="M 691 4666 
L 3169 4666 
L 3169 4134 
L 1269 4134 
L 1269 2991 
Q 1406 3038 1543 3061 
Q 1681 3084 1819 3084 
Q 2600 3084 3056 2656 
Q 3513 2228 3513 1497 
Q 3513 744 3044 326 
Q 2575 -91 1722 -91 
Q 1428 -91 1123 -41 
Q 819 9 494 109 
L 494 744 
Q 775 591 1075 516 
Q 1375 441 1709 441 
Q 2250 441 2565 725 
Q 2881 1009 2881 1497 
Q 2881 1984 2565 2268 
Q 2250 2553 1709 2553 
Q 1456 2553 1204 2497 
Q 953 2441 691 2322 
L 691 4666 
z
" transform="scale(0.015625)"/>
       </defs>
       <use xlink:href="#DejaVuSans-35"/>
      </g>
     </g>
    </g>
    <g id="xtick_2">
     <g id="text_2">
      <!-- 7 -->
      <g style="fill: #262626" transform="translate(250.90461 517.238) scale(0.26 -0.26)">
       <defs>
        <path id="DejaVuSans-37" d="M 525 4666 
L 3525 4666 
L 3525 4397 
L 1831 0 
L 1172 0 
L 2766 4134 
L 525 4134 
L 525 4666 
z
" transform="scale(0.015625)"/>
       </defs>
       <use xlink:href="#DejaVuSans-37"/>
      </g>
     </g>
    </g>
    <g id="xtick_3">
     <g id="text_3">
      <!-- 9 -->
      <g style="fill: #262626" transform="translate(406.371421 517.238) scale(0.26 -0.26)">
       <defs>
        <path id="DejaVuSans-39" d="M 703 97 
L 703 672 
Q 941 559 1184 500 
Q 1428 441 1663 441 
Q 2288 441 2617 861 
Q 2947 1281 2994 2138 
Q 2813 1869 2534 1725 
Q 2256 1581 1919 1581 
Q 1219 1581 811 2004 
Q 403 2428 403 3163 
Q 403 3881 828 4315 
Q 1253 4750 1959 4750 
Q 2769 4750 3195 4129 
Q 3622 3509 3622 2328 
Q 3622 1225 3098 567 
Q 2575 -91 1691 -91 
Q 1453 -91 1209 -44 
Q 966 3 703 97 
z
M 1959 2075 
Q 2384 2075 2632 2365 
Q 2881 2656 2881 3163 
Q 2881 3666 2632 3958 
Q 2384 4250 1959 4250 
Q 1534 4250 1286 3958 
Q 1038 3666 1038 3163 
Q 1038 2656 1286 2365 
Q 1534 2075 1959 2075 
z
" transform="scale(0.015625)"/>
       </defs>
       <use xlink:href="#DejaVuSans-39"/>
      </g>
     </g>
    </g>
    <g id="xtick_4">
     <g id="text_4">
      <!-- 12 -->
      <g style="fill: #262626" transform="translate(553.566982 517.238) scale(0.26 -0.26)">
       <defs>
        <path id="DejaVuSans-31" d="M 794 531 
L 1825 531 
L 1825 4091 
L 703 3866 
L 703 4441 
L 1819 4666 
L 2450 4666 
L 2450 531 
L 3481 531 
L 3481 0 
L 794 0 
L 794 531 
z
" transform="scale(0.015625)"/>
        <path id="DejaVuSans-32" d="M 1228 531 
L 3431 531 
L 3431 0 
L 469 0 
L 469 531 
Q 828 903 1448 1529 
Q 2069 2156 2228 2338 
Q 2531 2678 2651 2914 
Q 2772 3150 2772 3378 
Q 2772 3750 2511 3984 
Q 2250 4219 1831 4219 
Q 1534 4219 1204 4116 
Q 875 4013 500 3803 
L 500 4441 
Q 881 4594 1212 4672 
Q 1544 4750 1819 4750 
Q 2544 4750 2975 4387 
Q 3406 4025 3406 3419 
Q 3406 3131 3298 2873 
Q 3191 2616 2906 2266 
Q 2828 2175 2409 1742 
Q 1991 1309 1228 531 
z
" transform="scale(0.015625)"/>
       </defs>
       <use xlink:href="#DejaVuSans-31"/>
       <use xlink:href="#DejaVuSans-32" x="63.623047"/>
      </g>
     </g>
    </g>
    <g id="text_5">
     <!-- Tunnel Gap (dimers) -->
     <g style="fill: #262626" transform="translate(193.626104 549.4405) scale(0.3 -0.3)">
      <defs>
       <path id="DejaVuSans-Bold-54" d="M 31 4666 
L 4331 4666 
L 4331 3756 
L 2784 3756 
L 2784 0 
L 1581 0 
L 1581 3756 
L 31 3756 
L 31 4666 
z
" transform="scale(0.015625)"/>
       <path id="DejaVuSans-Bold-75" d="M 500 1363 
L 500 3500 
L 1625 3500 
L 1625 3150 
Q 1625 2866 1622 2436 
Q 1619 2006 1619 1863 
Q 1619 1441 1641 1255 
Q 1663 1069 1716 984 
Q 1784 875 1895 815 
Q 2006 756 2150 756 
Q 2500 756 2700 1025 
Q 2900 1294 2900 1772 
L 2900 3500 
L 4019 3500 
L 4019 0 
L 2900 0 
L 2900 506 
Q 2647 200 2364 54 
Q 2081 -91 1741 -91 
Q 1134 -91 817 281 
Q 500 653 500 1363 
z
" transform="scale(0.015625)"/>
       <path id="DejaVuSans-Bold-6e" d="M 4056 2131 
L 4056 0 
L 2931 0 
L 2931 347 
L 2931 1631 
Q 2931 2084 2911 2256 
Q 2891 2428 2841 2509 
Q 2775 2619 2662 2680 
Q 2550 2741 2406 2741 
Q 2056 2741 1856 2470 
Q 1656 2200 1656 1722 
L 1656 0 
L 538 0 
L 538 3500 
L 1656 3500 
L 1656 2988 
Q 1909 3294 2193 3439 
Q 2478 3584 2822 3584 
Q 3428 3584 3742 3212 
Q 4056 2841 4056 2131 
z
" transform="scale(0.015625)"/>
       <path id="DejaVuSans-Bold-65" d="M 4031 1759 
L 4031 1441 
L 1416 1441 
Q 1456 1047 1700 850 
Q 1944 653 2381 653 
Q 2734 653 3104 758 
Q 3475 863 3866 1075 
L 3866 213 
Q 3469 63 3072 -14 
Q 2675 -91 2278 -91 
Q 1328 -91 801 392 
Q 275 875 275 1747 
Q 275 2603 792 3093 
Q 1309 3584 2216 3584 
Q 3041 3584 3536 3087 
Q 4031 2591 4031 1759 
z
M 2881 2131 
Q 2881 2450 2695 2645 
Q 2509 2841 2209 2841 
Q 1884 2841 1681 2658 
Q 1478 2475 1428 2131 
L 2881 2131 
z
" transform="scale(0.015625)"/>
       <path id="DejaVuSans-Bold-6c" d="M 538 4863 
L 1656 4863 
L 1656 0 
L 538 0 
L 538 4863 
z
" transform="scale(0.015625)"/>
       <path id="DejaVuSans-Bold-20" transform="scale(0.015625)"/>
       <path id="DejaVuSans-Bold-47" d="M 4781 347 
Q 4331 128 3847 18 
Q 3363 -91 2847 -91 
Q 1681 -91 1000 561 
Q 319 1213 319 2328 
Q 319 3456 1012 4103 
Q 1706 4750 2913 4750 
Q 3378 4750 3804 4662 
Q 4231 4575 4609 4403 
L 4609 3438 
Q 4219 3659 3833 3768 
Q 3447 3878 3059 3878 
Q 2341 3878 1952 3476 
Q 1563 3075 1563 2328 
Q 1563 1588 1938 1184 
Q 2313 781 3003 781 
Q 3191 781 3352 804 
Q 3513 828 3641 878 
L 3641 1784 
L 2906 1784 
L 2906 2591 
L 4781 2591 
L 4781 347 
z
" transform="scale(0.015625)"/>
       <path id="DejaVuSans-Bold-61" d="M 2106 1575 
Q 1756 1575 1579 1456 
Q 1403 1338 1403 1106 
Q 1403 894 1545 773 
Q 1688 653 1941 653 
Q 2256 653 2472 879 
Q 2688 1106 2688 1447 
L 2688 1575 
L 2106 1575 
z
M 3816 1997 
L 3816 0 
L 2688 0 
L 2688 519 
Q 2463 200 2181 54 
Q 1900 -91 1497 -91 
Q 953 -91 614 226 
Q 275 544 275 1050 
Q 275 1666 698 1953 
Q 1122 2241 2028 2241 
L 2688 2241 
L 2688 2328 
Q 2688 2594 2478 2717 
Q 2269 2841 1825 2841 
Q 1466 2841 1156 2769 
Q 847 2697 581 2553 
L 581 3406 
Q 941 3494 1303 3539 
Q 1666 3584 2028 3584 
Q 2975 3584 3395 3211 
Q 3816 2838 3816 1997 
z
" transform="scale(0.015625)"/>
       <path id="DejaVuSans-Bold-70" d="M 1656 506 
L 1656 -1331 
L 538 -1331 
L 538 3500 
L 1656 3500 
L 1656 2988 
Q 1888 3294 2169 3439 
Q 2450 3584 2816 3584 
Q 3463 3584 3878 3070 
Q 4294 2556 4294 1747 
Q 4294 938 3878 423 
Q 3463 -91 2816 -91 
Q 2450 -91 2169 54 
Q 1888 200 1656 506 
z
M 2400 2772 
Q 2041 2772 1848 2508 
Q 1656 2244 1656 1747 
Q 1656 1250 1848 986 
Q 2041 722 2400 722 
Q 2759 722 2948 984 
Q 3138 1247 3138 1747 
Q 3138 2247 2948 2509 
Q 2759 2772 2400 2772 
z
" transform="scale(0.015625)"/>
       <path id="DejaVuSans-Bold-28" d="M 2413 -844 
L 1484 -844 
Q 1006 -72 778 623 
Q 550 1319 550 2003 
Q 550 2688 779 3389 
Q 1009 4091 1484 4856 
L 2413 4856 
Q 2013 4116 1813 3408 
Q 1613 2700 1613 2009 
Q 1613 1319 1811 609 
Q 2009 -100 2413 -844 
z
" transform="scale(0.015625)"/>
       <path id="DejaVuSans-Bold-64" d="M 2919 2988 
L 2919 4863 
L 4044 4863 
L 4044 0 
L 2919 0 
L 2919 506 
Q 2688 197 2409 53 
Q 2131 -91 1766 -91 
Q 1119 -91 703 423 
Q 288 938 288 1747 
Q 288 2556 703 3070 
Q 1119 3584 1766 3584 
Q 2128 3584 2408 3439 
Q 2688 3294 2919 2988 
z
M 2181 722 
Q 2541 722 2730 984 
Q 2919 1247 2919 1747 
Q 2919 2247 2730 2509 
Q 2541 2772 2181 2772 
Q 1825 2772 1636 2509 
Q 1447 2247 1447 1747 
Q 1447 1247 1636 984 
Q 1825 722 2181 722 
z
" transform="scale(0.015625)"/>
       <path id="DejaVuSans-Bold-69" d="M 538 3500 
L 1656 3500 
L 1656 0 
L 538 0 
L 538 3500 
z
M 538 4863 
L 1656 4863 
L 1656 3950 
L 538 3950 
L 538 4863 
z
" transform="scale(0.015625)"/>
       <path id="DejaVuSans-Bold-6d" d="M 3781 2919 
Q 3994 3244 4286 3414 
Q 4578 3584 4928 3584 
Q 5531 3584 5847 3212 
Q 6163 2841 6163 2131 
L 6163 0 
L 5038 0 
L 5038 1825 
Q 5041 1866 5042 1909 
Q 5044 1953 5044 2034 
Q 5044 2406 4934 2573 
Q 4825 2741 4581 2741 
Q 4263 2741 4089 2478 
Q 3916 2216 3909 1719 
L 3909 0 
L 2784 0 
L 2784 1825 
Q 2784 2406 2684 2573 
Q 2584 2741 2328 2741 
Q 2006 2741 1831 2477 
Q 1656 2213 1656 1722 
L 1656 0 
L 531 0 
L 531 3500 
L 1656 3500 
L 1656 2988 
Q 1863 3284 2130 3434 
Q 2397 3584 2719 3584 
Q 3081 3584 3359 3409 
Q 3638 3234 3781 2919 
z
" transform="scale(0.015625)"/>
       <path id="DejaVuSans-Bold-72" d="M 3138 2547 
Q 2991 2616 2845 2648 
Q 2700 2681 2553 2681 
Q 2122 2681 1889 2404 
Q 1656 2128 1656 1613 
L 1656 0 
L 538 0 
L 538 3500 
L 1656 3500 
L 1656 2925 
Q 1872 3269 2151 3426 
Q 2431 3584 2822 3584 
Q 2878 3584 2943 3579 
Q 3009 3575 3134 3559 
L 3138 2547 
z
" transform="scale(0.015625)"/>
       <path id="DejaVuSans-Bold-73" d="M 3272 3391 
L 3272 2541 
Q 2913 2691 2578 2766 
Q 2244 2841 1947 2841 
Q 1628 2841 1473 2761 
Q 1319 2681 1319 2516 
Q 1319 2381 1436 2309 
Q 1553 2238 1856 2203 
L 2053 2175 
Q 2913 2066 3209 1816 
Q 3506 1566 3506 1031 
Q 3506 472 3093 190 
Q 2681 -91 1863 -91 
Q 1516 -91 1145 -36 
Q 775 19 384 128 
L 384 978 
Q 719 816 1070 734 
Q 1422 653 1784 653 
Q 2113 653 2278 743 
Q 2444 834 2444 1013 
Q 2444 1163 2330 1236 
Q 2216 1309 1875 1350 
L 1678 1375 
Q 931 1469 631 1722 
Q 331 1975 331 2491 
Q 331 3047 712 3315 
Q 1094 3584 1881 3584 
Q 2191 3584 2531 3537 
Q 2872 3491 3272 3391 
z
" transform="scale(0.015625)"/>
       <path id="DejaVuSans-Bold-29" d="M 513 -844 
Q 913 -100 1113 609 
Q 1313 1319 1313 2009 
Q 1313 2700 1113 3408 
Q 913 4116 513 4856 
L 1441 4856 
Q 1916 4091 2145 3389 
Q 2375 2688 2375 2003 
Q 2375 1319 2147 623 
Q 1919 -72 1441 -844 
L 513 -844 
z
" transform="scale(0.015625)"/>
      </defs>
      <use xlink:href="#DejaVuSans-Bold-54"/>
      <use xlink:href="#DejaVuSans-Bold-75" x="57.212891"/>
      <use xlink:href="#DejaVuSans-Bold-6e" x="128.404297"/>
      <use xlink:href="#DejaVuSans-Bold-6e" x="199.595703"/>
      <use xlink:href="#DejaVuSans-Bold-65" x="270.787109"/>
      <use xlink:href="#DejaVuSans-Bold-6c" x="338.609375"/>
      <use xlink:href="#DejaVuSans-Bold-20" x="372.886719"/>
      <use xlink:href="#DejaVuSans-Bold-47" x="407.701172"/>
      <use xlink:href="#DejaVuSans-Bold-61" x="489.78125"/>
      <use xlink:href="#DejaVuSans-Bold-70" x="557.261719"/>
      <use xlink:href="#DejaVuSans-Bold-20" x="628.84375"/>
      <use xlink:href="#DejaVuSans-Bold-28" x="663.658203"/>
      <use xlink:href="#DejaVuSans-Bold-64" x="709.361328"/>
      <use xlink:href="#DejaVuSans-Bold-69" x="780.943359"/>
      <use xlink:href="#DejaVuSans-Bold-6d" x="815.220703"/>
      <use xlink:href="#DejaVuSans-Bold-65" x="919.419922"/>
      <use xlink:href="#DejaVuSans-Bold-72" x="987.242188"/>
      <use xlink:href="#DejaVuSans-Bold-73" x="1036.558594"/>
      <use xlink:href="#DejaVuSans-Bold-29" x="1096.080078"/>
     </g>
    </g>
   </g>
   <g id="matplotlib.axis_2">
    <g id="ytick_1">
     <g id="line2d_1">
      <path d="M 77.590625 484.982063 
L 652.195958 484.982063 
" clip-path="url(#pdf3ef5c854)" style="fill: none; stroke-dasharray: 5.6,5.6; stroke-dashoffset: 0; stroke: #cccccc; stroke-opacity: 0.3; stroke-width: 1.4"/>
     </g>
     <g id="text_6">
      <!-- 0 -->
      <g style="fill: #262626" transform="translate(48.548125 494.860031) scale(0.26 -0.26)">
       <defs>
        <path id="DejaVuSans-30" d="M 2034 4250 
Q 1547 4250 1301 3770 
Q 1056 3291 1056 2328 
Q 1056 1369 1301 889 
Q 1547 409 2034 409 
Q 2525 409 2770 889 
Q 3016 1369 3016 2328 
Q 3016 3291 2770 3770 
Q 2525 4250 2034 4250 
z
M 2034 4750 
Q 2819 4750 3233 4129 
Q 3647 3509 3647 2328 
Q 3647 1150 3233 529 
Q 2819 -91 2034 -91 
Q 1250 -91 836 529 
Q 422 1150 422 2328 
Q 422 3509 836 4129 
Q 1250 4750 2034 4750 
z
" transform="scale(0.015625)"/>
       </defs>
       <use xlink:href="#DejaVuSans-30"/>
      </g>
     </g>
    </g>
    <g id="ytick_2">
     <g id="line2d_2">
      <path d="M 77.590625 430.482313 
L 652.195958 430.482313 
" clip-path="url(#pdf3ef5c854)" style="fill: none; stroke-dasharray: 5.6,5.6; stroke-dashoffset: 0; stroke: #cccccc; stroke-opacity: 0.3; stroke-width: 1.4"/>
     </g>
     <g id="text_7">
      <!-- 2.50 -->
      <g style="fill: #262626" transform="translate(7.2 440.360282) scale(0.26 -0.26)">
       <defs>
        <path id="DejaVuSans-2e" d="M 684 794 
L 1344 794 
L 1344 0 
L 684 0 
L 684 794 
z
" transform="scale(0.015625)"/>
       </defs>
       <use xlink:href="#DejaVuSans-32"/>
       <use xlink:href="#DejaVuSans-2e" x="63.623047"/>
       <use xlink:href="#DejaVuSans-35" x="95.410156"/>
       <use xlink:href="#DejaVuSans-30" x="159.033203"/>
      </g>
     </g>
    </g>
    <g id="ytick_3">
     <g id="line2d_3">
      <path d="M 77.590625 375.982564 
L 652.195958 375.982564 
" clip-path="url(#pdf3ef5c854)" style="fill: none; stroke-dasharray: 5.6,5.6; stroke-dashoffset: 0; stroke: #cccccc; stroke-opacity: 0.3; stroke-width: 1.4"/>
     </g>
     <g id="text_8">
      <!-- 5 -->
      <g style="fill: #262626" transform="translate(48.548125 385.860533) scale(0.26 -0.26)">
       <use xlink:href="#DejaVuSans-35"/>
      </g>
     </g>
    </g>
    <g id="ytick_4">
     <g id="line2d_4">
      <path d="M 77.590625 321.482814 
L 652.195958 321.482814 
" clip-path="url(#pdf3ef5c854)" style="fill: none; stroke-dasharray: 5.6,5.6; stroke-dashoffset: 0; stroke: #cccccc; stroke-opacity: 0.3; stroke-width: 1.4"/>
     </g>
     <g id="text_9">
      <!-- 7.50 -->
      <g style="fill: #262626" transform="translate(7.2 331.360783) scale(0.26 -0.26)">
       <use xlink:href="#DejaVuSans-37"/>
       <use xlink:href="#DejaVuSans-2e" x="63.623047"/>
       <use xlink:href="#DejaVuSans-35" x="95.410156"/>
       <use xlink:href="#DejaVuSans-30" x="159.033203"/>
      </g>
     </g>
    </g>
    <g id="ytick_5">
     <g id="line2d_5">
      <path d="M 77.590625 266.983065 
L 652.195958 266.983065 
" clip-path="url(#pdf3ef5c854)" style="fill: none; stroke-dasharray: 5.6,5.6; stroke-dashoffset: 0; stroke: #cccccc; stroke-opacity: 0.3; stroke-width: 1.4"/>
     </g>
     <g id="text_10">
      <!-- 10 -->
      <g style="fill: #262626" transform="translate(32.005625 276.861034) scale(0.26 -0.26)">
       <use xlink:href="#DejaVuSans-31"/>
       <use xlink:href="#DejaVuSans-30" x="63.623047"/>
      </g>
     </g>
    </g>
    <g id="ytick_6">
     <g id="line2d_6">
      <path d="M 77.590625 212.483316 
L 652.195958 212.483316 
" clip-path="url(#pdf3ef5c854)" style="fill: none; stroke-dasharray: 5.6,5.6; stroke-dashoffset: 0; stroke: #cccccc; stroke-opacity: 0.3; stroke-width: 1.4"/>
     </g>
     <g id="text_11">
      <!-- 12.5 -->
      <g style="fill: #262626" transform="translate(7.2 222.361284) scale(0.26 -0.26)">
       <use xlink:href="#DejaVuSans-31"/>
       <use xlink:href="#DejaVuSans-32" x="63.623047"/>
       <use xlink:href="#DejaVuSans-2e" x="127.246094"/>
       <use xlink:href="#DejaVuSans-35" x="159.033203"/>
      </g>
     </g>
    </g>
    <g id="ytick_7">
     <g id="line2d_7">
      <path d="M 77.590625 157.983566 
L 652.195958 157.983566 
" clip-path="url(#pdf3ef5c854)" style="fill: none; stroke-dasharray: 5.6,5.6; stroke-dashoffset: 0; stroke: #cccccc; stroke-opacity: 0.3; stroke-width: 1.4"/>
     </g>
     <g id="text_12">
      <!-- 15 -->
      <g style="fill: #262626" transform="translate(32.005625 167.861535) scale(0.26 -0.26)">
       <use xlink:href="#DejaVuSans-31"/>
       <use xlink:href="#DejaVuSans-35" x="63.623047"/>
      </g>
     </g>
    </g>
    <g id="ytick_8">
     <g id="line2d_8">
      <path d="M 77.590625 103.483817 
L 652.195958 103.483817 
" clip-path="url(#pdf3ef5c854)" style="fill: none; stroke-dasharray: 5.6,5.6; stroke-dashoffset: 0; stroke: #cccccc; stroke-opacity: 0.3; stroke-width: 1.4"/>
     </g>
     <g id="text_13">
      <!-- 17.5 -->
      <g style="fill: #262626" transform="translate(7.2 113.361786) scale(0.26 -0.26)">
       <use xlink:href="#DejaVuSans-31"/>
       <use xlink:href="#DejaVuSans-37" x="63.623047"/>
       <use xlink:href="#DejaVuSans-2e" x="127.246094"/>
       <use xlink:href="#DejaVuSans-35" x="159.033203"/>
      </g>
     </g>
    </g>
   </g>
   <g id="patch_3">
    <path d="M 77.590625 484.982063 
L 77.590625 50.074062 
" style="fill: none; opacity: 0.8; stroke: #cccccc; stroke-width: 2; stroke-linejoin: miter; stroke-linecap: square"/>
   </g>
   <g id="patch_4">
    <path d="M 77.590625 484.982063 
L 652.195958 484.982063 
" style="fill: none; opacity: 0.8; stroke: #cccccc; stroke-width: 2; stroke-linejoin: miter; stroke-linecap: square"/>
   </g>
   <g id="patch_5">
    <path d="M 0 0 
z
" clip-path="url(#pdf3ef5c854)" style="fill: #1f77b4; opacity: 0.98; stroke: #111111; stroke-width: 1.4; stroke-linejoin: miter"/>
   </g>
   <g id="patch_6">
    <path d="M 203.207808 484.982063 
L 259.17586 484.982063 
L 259.17586 310.582865 
L 203.207808 310.582865 
z
" clip-path="url(#pdf3ef5c854)" style="fill: #1f77b4; opacity: 0.98; stroke: #111111; stroke-width: 1.4; stroke-linejoin: miter"/>
   </g>
   <g id="patch_7">
    <path d="M 358.674619 484.982063 
L 414.642671 484.982063 
L 414.642671 201.583366 
L 358.674619 201.583366 
z
" clip-path="url(#pdf3ef5c854)" style="fill: #1f77b4; opacity: 0.98; stroke: #111111; stroke-width: 1.4; stroke-linejoin: miter"/>
   </g>
   <g id="patch_8">
    <path d="M 514.14143 484.982063 
L 570.109482 484.982063 
L 570.109482 70.783967 
L 514.14143 70.783967 
z
" clip-path="url(#pdf3ef5c854)" style="fill: #1f77b4; opacity: 0.98; stroke: #111111; stroke-width: 1.4; stroke-linejoin: miter"/>
   </g>
   <g id="patch_9">
    <path d="M 103.709049 484.982063 
L 159.677101 484.982063 
L 159.677101 354.182664 
L 103.709049 354.182664 
z
" clip-path="url(#pdf3ef5c854)" style="fill: #d62728; opacity: 0.98; stroke: #111111; stroke-width: 1.4; stroke-linejoin: miter"/>
   </g>
   <g id="patch_10">
    <path d="M 0 0 
z
" clip-path="url(#pdf3ef5c854)" style="fill: #d62728; opacity: 0.98; stroke: #111111; stroke-width: 1.4; stroke-linejoin: miter"/>
   </g>
   <g id="patch_11">
    <path d="M 414.642671 484.982063 
L 470.610723 484.982063 
L 470.610723 223.383266 
L 414.642671 223.383266 
z
" clip-path="url(#pdf3ef5c854)" style="fill: #d62728; opacity: 0.98; stroke: #111111; stroke-width: 1.4; stroke-linejoin: miter"/>
   </g>
   <g id="patch_12">
    <path d="M 570.109482 484.982063 
L 626.077534 484.982063 
L 626.077534 136.183667 
L 570.109482 136.183667 
z
" clip-path="url(#pdf3ef5c854)" style="fill: #d62728; opacity: 0.98; stroke: #111111; stroke-width: 1.4; stroke-linejoin: miter"/>
   </g>
   <g id="text_14">
    <!-- Charging Energy -->
    <g style="fill: #262626" transform="translate(186.631729 36.074062) scale(0.38 -0.38)">
     <defs>
      <path id="DejaVuSans-Bold-43" d="M 4288 256 
Q 3956 84 3597 -3 
Q 3238 -91 2847 -91 
Q 1681 -91 1000 561 
Q 319 1213 319 2328 
Q 319 3447 1000 4098 
Q 1681 4750 2847 4750 
Q 3238 4750 3597 4662 
Q 3956 4575 4288 4403 
L 4288 3438 
Q 3953 3666 3628 3772 
Q 3303 3878 2944 3878 
Q 2300 3878 1931 3465 
Q 1563 3053 1563 2328 
Q 1563 1606 1931 1193 
Q 2300 781 2944 781 
Q 3303 781 3628 887 
Q 3953 994 4288 1222 
L 4288 256 
z
" transform="scale(0.015625)"/>
      <path id="DejaVuSans-Bold-68" d="M 4056 2131 
L 4056 0 
L 2931 0 
L 2931 347 
L 2931 1625 
Q 2931 2084 2911 2256 
Q 2891 2428 2841 2509 
Q 2775 2619 2662 2680 
Q 2550 2741 2406 2741 
Q 2056 2741 1856 2470 
Q 1656 2200 1656 1722 
L 1656 0 
L 538 0 
L 538 4863 
L 1656 4863 
L 1656 2988 
Q 1909 3294 2193 3439 
Q 2478 3584 2822 3584 
Q 3428 3584 3742 3212 
Q 4056 2841 4056 2131 
z
" transform="scale(0.015625)"/>
      <path id="DejaVuSans-Bold-67" d="M 2919 594 
Q 2688 288 2409 144 
Q 2131 0 1766 0 
Q 1125 0 706 504 
Q 288 1009 288 1791 
Q 288 2575 706 3076 
Q 1125 3578 1766 3578 
Q 2131 3578 2409 3434 
Q 2688 3291 2919 2981 
L 2919 3500 
L 4044 3500 
L 4044 353 
Q 4044 -491 3511 -936 
Q 2978 -1381 1966 -1381 
Q 1638 -1381 1331 -1331 
Q 1025 -1281 716 -1178 
L 716 -306 
Q 1009 -475 1290 -558 
Q 1572 -641 1856 -641 
Q 2406 -641 2662 -400 
Q 2919 -159 2919 353 
L 2919 594 
z
M 2181 2772 
Q 1834 2772 1640 2515 
Q 1447 2259 1447 1791 
Q 1447 1309 1634 1061 
Q 1822 813 2181 813 
Q 2531 813 2725 1069 
Q 2919 1325 2919 1791 
Q 2919 2259 2725 2515 
Q 2531 2772 2181 2772 
z
" transform="scale(0.015625)"/>
      <path id="DejaVuSans-Bold-45" d="M 588 4666 
L 3834 4666 
L 3834 3756 
L 1791 3756 
L 1791 2888 
L 3713 2888 
L 3713 1978 
L 1791 1978 
L 1791 909 
L 3903 909 
L 3903 0 
L 588 0 
L 588 4666 
z
" transform="scale(0.015625)"/>
      <path id="DejaVuSans-Bold-79" d="M 78 3500 
L 1197 3500 
L 2138 1125 
L 2938 3500 
L 4056 3500 
L 2584 -331 
Q 2363 -916 2067 -1148 
Q 1772 -1381 1288 -1381 
L 641 -1381 
L 641 -647 
L 991 -647 
Q 1275 -647 1404 -556 
Q 1534 -466 1606 -231 
L 1638 -134 
L 78 3500 
z
" transform="scale(0.015625)"/>
     </defs>
     <use xlink:href="#DejaVuSans-Bold-43"/>
     <use xlink:href="#DejaVuSans-Bold-68" x="73.388672"/>
     <use xlink:href="#DejaVuSans-Bold-61" x="144.580078"/>
     <use xlink:href="#DejaVuSans-Bold-72" x="212.060547"/>
     <use xlink:href="#DejaVuSans-Bold-67" x="261.376953"/>
     <use xlink:href="#DejaVuSans-Bold-69" x="332.958984"/>
     <use xlink:href="#DejaVuSans-Bold-6e" x="367.236328"/>
     <use xlink:href="#DejaVuSans-Bold-67" x="438.427734"/>
     <use xlink:href="#DejaVuSans-Bold-20" x="510.009766"/>
     <use xlink:href="#DejaVuSans-Bold-45" x="544.824219"/>
     <use xlink:href="#DejaVuSans-Bold-6e" x="613.134766"/>
     <use xlink:href="#DejaVuSans-Bold-65" x="684.326172"/>
     <use xlink:href="#DejaVuSans-Bold-72" x="752.148438"/>
     <use xlink:href="#DejaVuSans-Bold-67" x="801.464844"/>
     <use xlink:href="#DejaVuSans-Bold-79" x="873.046875"/>
    </g>
   </g>
  </g>
  <g id="axes_2">
   <g id="patch_13">
    <path d="M 671.635958 484.982063 
L 1246.241292 484.982063 
L 1246.241292 50.074062 
L 671.635958 50.074062 
z
" style="fill: #fafafb"/>
   </g>
   <g id="matplotlib.axis_3">
    <g id="xtick_5">
     <g id="text_15">
      <!-- 5 -->
      <g style="fill: #262626" transform="translate(689.483133 517.238) scale(0.26 -0.26)">
       <use xlink:href="#DejaVuSans-35"/>
      </g>
     </g>
    </g>
    <g id="xtick_6">
     <g id="text_16">
      <!-- 7 -->
      <g style="fill: #262626" transform="translate(844.949944 517.238) scale(0.26 -0.26)">
       <use xlink:href="#DejaVuSans-37"/>
      </g>
     </g>
    </g>
    <g id="xtick_7">
     <g id="text_17">
      <!-- 9 -->
      <g style="fill: #262626" transform="translate(1000.416755 517.238) scale(0.26 -0.26)">
       <use xlink:href="#DejaVuSans-39"/>
      </g>
     </g>
    </g>
    <g id="xtick_8">
     <g id="text_18">
      <!-- 12 -->
      <g style="fill: #262626" transform="translate(1147.612315 517.238) scale(0.26 -0.26)">
       <use xlink:href="#DejaVuSans-31"/>
       <use xlink:href="#DejaVuSans-32" x="63.623047"/>
      </g>
     </g>
    </g>
    <g id="text_19">
     <!-- Tunnel Gap (dimers) -->
     <g style="fill: #262626" transform="translate(787.671438 549.4405) scale(0.3 -0.3)">
      <use xlink:href="#DejaVuSans-Bold-54"/>
      <use xlink:href="#DejaVuSans-Bold-75" x="57.212891"/>
      <use xlink:href="#DejaVuSans-Bold-6e" x="128.404297"/>
      <use xlink:href="#DejaVuSans-Bold-6e" x="199.595703"/>
      <use xlink:href="#DejaVuSans-Bold-65" x="270.787109"/>
      <use xlink:href="#DejaVuSans-Bold-6c" x="338.609375"/>
      <use xlink:href="#DejaVuSans-Bold-20" x="372.886719"/>
      <use xlink:href="#DejaVuSans-Bold-47" x="407.701172"/>
      <use xlink:href="#DejaVuSans-Bold-61" x="489.78125"/>
      <use xlink:href="#DejaVuSans-Bold-70" x="557.261719"/>
      <use xlink:href="#DejaVuSans-Bold-20" x="628.84375"/>
      <use xlink:href="#DejaVuSans-Bold-28" x="663.658203"/>
      <use xlink:href="#DejaVuSans-Bold-64" x="709.361328"/>
      <use xlink:href="#DejaVuSans-Bold-69" x="780.943359"/>
      <use xlink:href="#DejaVuSans-Bold-6d" x="815.220703"/>
      <use xlink:href="#DejaVuSans-Bold-65" x="919.419922"/>
      <use xlink:href="#DejaVuSans-Bold-72" x="987.242188"/>
      <use xlink:href="#DejaVuSans-Bold-73" x="1036.558594"/>
      <use xlink:href="#DejaVuSans-Bold-29" x="1096.080078"/>
     </g>
    </g>
   </g>
   <g id="matplotlib.axis_4">
    <g id="ytick_9">
     <g id="line2d_9">
      <path d="M 671.635958 484.982063 
L 1246.241292 484.982063 
" clip-path="url(#p3fa7ffb9aa)" style="fill: none; stroke-dasharray: 5.6,5.6; stroke-dashoffset: 0; stroke: #cccccc; stroke-opacity: 0.3; stroke-width: 1.4"/>
     </g>
    </g>
    <g id="ytick_10">
     <g id="line2d_10">
      <path d="M 671.635958 402.142443 
L 1246.241292 402.142443 
" clip-path="url(#p3fa7ffb9aa)" style="fill: none; stroke-dasharray: 5.6,5.6; stroke-dashoffset: 0; stroke: #cccccc; stroke-opacity: 0.3; stroke-width: 1.4"/>
     </g>
    </g>
    <g id="ytick_11">
     <g id="line2d_11">
      <path d="M 671.635958 319.302824 
L 1246.241292 319.302824 
" clip-path="url(#p3fa7ffb9aa)" style="fill: none; stroke-dasharray: 5.6,5.6; stroke-dashoffset: 0; stroke: #cccccc; stroke-opacity: 0.3; stroke-width: 1.4"/>
     </g>
    </g>
    <g id="ytick_12">
     <g id="line2d_12">
      <path d="M 671.635958 236.463205 
L 1246.241292 236.463205 
" clip-path="url(#p3fa7ffb9aa)" style="fill: none; stroke-dasharray: 5.6,5.6; stroke-dashoffset: 0; stroke: #cccccc; stroke-opacity: 0.3; stroke-width: 1.4"/>
     </g>
    </g>
    <g id="ytick_13">
     <g id="line2d_13">
      <path d="M 671.635958 153.623586 
L 1246.241292 153.623586 
" clip-path="url(#p3fa7ffb9aa)" style="fill: none; stroke-dasharray: 5.6,5.6; stroke-dashoffset: 0; stroke: #cccccc; stroke-opacity: 0.3; stroke-width: 1.4"/>
     </g>
    </g>
    <g id="ytick_14">
     <g id="line2d_14">
      <path d="M 671.635958 70.783967 
L 1246.241292 70.783967 
" clip-path="url(#p3fa7ffb9aa)" style="fill: none; stroke-dasharray: 5.6,5.6; stroke-dashoffset: 0; stroke: #cccccc; stroke-opacity: 0.3; stroke-width: 1.4"/>
     </g>
    </g>
   </g>
   <g id="patch_14">
    <path d="M 671.635958 484.982063 
L 671.635958 50.074062 
" style="fill: none; opacity: 0.8; stroke: #cccccc; stroke-width: 2; stroke-linejoin: miter; stroke-linecap: square"/>
   </g>
   <g id="patch_15">
    <path d="M 671.635958 484.982063 
L 1246.241292 484.982063 
" style="fill: none; opacity: 0.8; stroke: #cccccc; stroke-width: 2; stroke-linejoin: miter; stroke-linecap: square"/>
   </g>
   <g id="patch_16">
    <path d="M 0 0 
z
" clip-path="url(#p3fa7ffb9aa)" style="fill: #1f77b4; opacity: 0.98; stroke: #111111; stroke-width: 1.4; stroke-linejoin: miter"/>
   </g>
   <g id="patch_17">
    <path d="M 797.253142 484.982063 
L 853.221194 484.982063 
L 853.221194 174.333491 
L 797.253142 174.333491 
z
" clip-path="url(#p3fa7ffb9aa)" style="fill: #1f77b4; opacity: 0.98; stroke: #111111; stroke-width: 1.4; stroke-linejoin: miter"/>
   </g>
   <g id="patch_18">
    <path d="M 952.719953 484.982063 
L 1008.688005 484.982063 
L 1008.688005 199.185377 
L 952.719953 199.185377 
z
" clip-path="url(#p3fa7ffb9aa)" style="fill: #1f77b4; opacity: 0.98; stroke: #111111; stroke-width: 1.4; stroke-linejoin: miter"/>
   </g>
   <g id="patch_19">
    <path d="M 1108.186764 484.982063 
L 1164.154815 484.982063 
L 1164.154815 120.487739 
L 1108.186764 120.487739 
z
" clip-path="url(#p3fa7ffb9aa)" style="fill: #1f77b4; opacity: 0.98; stroke: #111111; stroke-width: 1.4; stroke-linejoin: miter"/>
   </g>
   <g id="patch_20">
    <path d="M 697.754383 484.982063 
L 753.722435 484.982063 
L 753.722435 443.562253 
L 697.754383 443.562253 
z
" clip-path="url(#p3fa7ffb9aa)" style="fill: #d62728; opacity: 0.98; stroke: #111111; stroke-width: 1.4; stroke-linejoin: miter"/>
   </g>
   <g id="patch_21">
    <path d="M 0 0 
z
" clip-path="url(#p3fa7ffb9aa)" style="fill: #d62728; opacity: 0.98; stroke: #111111; stroke-width: 1.4; stroke-linejoin: miter"/>
   </g>
   <g id="patch_22">
    <path d="M 1008.688005 484.982063 
L 1064.656056 484.982063 
L 1064.656056 153.623586 
L 1008.688005 153.623586 
z
" clip-path="url(#p3fa7ffb9aa)" style="fill: #d62728; opacity: 0.98; stroke: #111111; stroke-width: 1.4; stroke-linejoin: miter"/>
   </g>
   <g id="patch_23">
    <path d="M 1164.154815 484.982063 
L 1220.122867 484.982063 
L 1220.122867 70.783967 
L 1164.154815 70.783967 
z
" clip-path="url(#p3fa7ffb9aa)" style="fill: #d62728; opacity: 0.98; stroke: #111111; stroke-width: 1.4; stroke-linejoin: miter"/>
   </g>
   <g id="text_20">
    <!-- Lever Arm -->
    <g style="fill: #262626" transform="translate(848.815812 36.074062) scale(0.38 -0.38)">
     <defs>
      <path id="DejaVuSans-Bold-4c" d="M 588 4666 
L 1791 4666 
L 1791 909 
L 3903 909 
L 3903 0 
L 588 0 
L 588 4666 
z
" transform="scale(0.015625)"/>
      <path id="DejaVuSans-Bold-76" d="M 97 3500 
L 1216 3500 
L 2088 1081 
L 2956 3500 
L 4078 3500 
L 2700 0 
L 1472 0 
L 97 3500 
z
" transform="scale(0.015625)"/>
      <path id="DejaVuSans-Bold-41" d="M 3419 850 
L 1538 850 
L 1241 0 
L 31 0 
L 1759 4666 
L 3194 4666 
L 4922 0 
L 3713 0 
L 3419 850 
z
M 1838 1716 
L 3116 1716 
L 2478 3572 
L 1838 1716 
z
" transform="scale(0.015625)"/>
     </defs>
     <use xlink:href="#DejaVuSans-Bold-4c"/>
     <use xlink:href="#DejaVuSans-Bold-65" x="63.720703"/>
     <use xlink:href="#DejaVuSans-Bold-76" x="131.542969"/>
     <use xlink:href="#DejaVuSans-Bold-65" x="196.728516"/>
     <use xlink:href="#DejaVuSans-Bold-72" x="264.550781"/>
     <use xlink:href="#DejaVuSans-Bold-20" x="313.867188"/>
     <use xlink:href="#DejaVuSans-Bold-41" x="348.681641"/>
     <use xlink:href="#DejaVuSans-Bold-72" x="426.074219"/>
     <use xlink:href="#DejaVuSans-Bold-6d" x="475.390625"/>
    </g>
   </g>
  </g>
  <g id="axes_3">
   <g id="patch_24">
    <path d="M 1265.681292 484.982063 
L 1840.286625 484.982063 
L 1840.286625 50.074062 
L 1265.681292 50.074062 
z
" style="fill: #fafafb"/>
   </g>
   <g id="matplotlib.axis_5">
    <g id="xtick_9">
     <g id="text_21">
      <!-- 5 -->
      <g style="fill: #262626" transform="translate(1283.528466 517.238) scale(0.26 -0.26)">
       <use xlink:href="#DejaVuSans-35"/>
      </g>
     </g>
    </g>
    <g id="xtick_10">
     <g id="text_22">
      <!-- 7 -->
      <g style="fill: #262626" transform="translate(1438.995277 517.238) scale(0.26 -0.26)">
       <use xlink:href="#DejaVuSans-37"/>
      </g>
     </g>
    </g>
    <g id="xtick_11">
     <g id="text_23">
      <!-- 9 -->
      <g style="fill: #262626" transform="translate(1594.462088 517.238) scale(0.26 -0.26)">
       <use xlink:href="#DejaVuSans-39"/>
      </g>
     </g>
    </g>
    <g id="xtick_12">
     <g id="text_24">
      <!-- 12 -->
      <g style="fill: #262626" transform="translate(1741.657649 517.238) scale(0.26 -0.26)">
       <use xlink:href="#DejaVuSans-31"/>
       <use xlink:href="#DejaVuSans-32" x="63.623047"/>
      </g>
     </g>
    </g>
    <g id="text_25">
     <!-- Tunnel Gap (dimers) -->
     <g style="fill: #262626" transform="translate(1381.716771 549.4405) scale(0.3 -0.3)">
      <use xlink:href="#DejaVuSans-Bold-54"/>
      <use xlink:href="#DejaVuSans-Bold-75" x="57.212891"/>
      <use xlink:href="#DejaVuSans-Bold-6e" x="128.404297"/>
      <use xlink:href="#DejaVuSans-Bold-6e" x="199.595703"/>
      <use xlink:href="#DejaVuSans-Bold-65" x="270.787109"/>
      <use xlink:href="#DejaVuSans-Bold-6c" x="338.609375"/>
      <use xlink:href="#DejaVuSans-Bold-20" x="372.886719"/>
      <use xlink:href="#DejaVuSans-Bold-47" x="407.701172"/>
      <use xlink:href="#DejaVuSans-Bold-61" x="489.78125"/>
      <use xlink:href="#DejaVuSans-Bold-70" x="557.261719"/>
      <use xlink:href="#DejaVuSans-Bold-20" x="628.84375"/>
      <use xlink:href="#DejaVuSans-Bold-28" x="663.658203"/>
      <use xlink:href="#DejaVuSans-Bold-64" x="709.361328"/>
      <use xlink:href="#DejaVuSans-Bold-69" x="780.943359"/>
      <use xlink:href="#DejaVuSans-Bold-6d" x="815.220703"/>
      <use xlink:href="#DejaVuSans-Bold-65" x="919.419922"/>
      <use xlink:href="#DejaVuSans-Bold-72" x="987.242188"/>
      <use xlink:href="#DejaVuSans-Bold-73" x="1036.558594"/>
      <use xlink:href="#DejaVuSans-Bold-29" x="1096.080078"/>
     </g>
    </g>
   </g>
   <g id="matplotlib.axis_6">
    <g id="ytick_15">
     <g id="line2d_15">
      <path d="M 1265.681292 484.982063 
L 1840.286625 484.982063 
" clip-path="url(#p04e6227e37)" style="fill: none; stroke-dasharray: 5.6,5.6; stroke-dashoffset: 0; stroke: #cccccc; stroke-opacity: 0.3; stroke-width: 1.4"/>
     </g>
    </g>
    <g id="ytick_16">
     <g id="line2d_16">
      <path d="M 1265.681292 399.403944 
L 1840.286625 399.403944 
" clip-path="url(#p04e6227e37)" style="fill: none; stroke-dasharray: 5.6,5.6; stroke-dashoffset: 0; stroke: #cccccc; stroke-opacity: 0.3; stroke-width: 1.4"/>
     </g>
    </g>
    <g id="ytick_17">
     <g id="line2d_17">
      <path d="M 1265.681292 313.825825 
L 1840.286625 313.825825 
" clip-path="url(#p04e6227e37)" style="fill: none; stroke-dasharray: 5.6,5.6; stroke-dashoffset: 0; stroke: #cccccc; stroke-opacity: 0.3; stroke-width: 1.4"/>
     </g>
    </g>
    <g id="ytick_18">
     <g id="line2d_18">
      <path d="M 1265.681292 228.247706 
L 1840.286625 228.247706 
" clip-path="url(#p04e6227e37)" style="fill: none; stroke-dasharray: 5.6,5.6; stroke-dashoffset: 0; stroke: #cccccc; stroke-opacity: 0.3; stroke-width: 1.4"/>
     </g>
    </g>
    <g id="ytick_19">
     <g id="line2d_19">
      <path d="M 1265.681292 142.669587 
L 1840.286625 142.669587 
" clip-path="url(#p04e6227e37)" style="fill: none; stroke-dasharray: 5.6,5.6; stroke-dashoffset: 0; stroke: #cccccc; stroke-opacity: 0.3; stroke-width: 1.4"/>
     </g>
    </g>
    <g id="ytick_20">
     <g id="line2d_20">
      <path d="M 1265.681292 57.091468 
L 1840.286625 57.091468 
" clip-path="url(#p04e6227e37)" style="fill: none; stroke-dasharray: 5.6,5.6; stroke-dashoffset: 0; stroke: #cccccc; stroke-opacity: 0.3; stroke-width: 1.4"/>
     </g>
    </g>
   </g>
   <g id="patch_25">
    <path d="M 1265.681292 484.982063 
L 1265.681292 50.074063 
" style="fill: none; opacity: 0.8; stroke: #cccccc; stroke-width: 2; stroke-linejoin: miter; stroke-linecap: square"/>
   </g>
   <g id="patch_26">
    <path d="M 1265.681292 484.982063 
L 1840.286625 484.982063 
" style="fill: none; opacity: 0.8; stroke: #cccccc; stroke-width: 2; stroke-linejoin: miter; stroke-linecap: square"/>
   </g>
   <g id="patch_27">
    <path d="M 0 0 
z
" clip-path="url(#p04e6227e37)" style="fill: #1f77b4; opacity: 0.98; stroke: #111111; stroke-width: 1.4; stroke-linejoin: miter"/>
   </g>
   <g id="patch_28">
    <path d="M 1391.298475 484.982063 
L 1447.266527 484.982063 
L 1447.266527 480.360844 
L 1391.298475 480.360844 
z
" clip-path="url(#p04e6227e37)" style="fill: #1f77b4; opacity: 0.98; stroke: #111111; stroke-width: 1.4; stroke-linejoin: miter"/>
   </g>
   <g id="patch_29">
    <path d="M 1546.765286 484.982063 
L 1602.733338 484.982063 
L 1602.733338 438.941035 
L 1546.765286 438.941035 
z
" clip-path="url(#p04e6227e37)" style="fill: #1f77b4; opacity: 0.98; stroke: #111111; stroke-width: 1.4; stroke-linejoin: miter"/>
   </g>
   <g id="patch_30">
    <path d="M 1702.232097 484.982063 
L 1758.200149 484.982063 
L 1758.200149 353.534072 
L 1702.232097 353.534072 
z
" clip-path="url(#p04e6227e37)" style="fill: #1f77b4; opacity: 0.98; stroke: #111111; stroke-width: 1.4; stroke-linejoin: miter"/>
   </g>
   <g id="patch_31">
    <path d="M 1291.799716 484.982063 
L 1347.767768 484.982063 
L 1347.767768 480.018532 
L 1291.799716 480.018532 
z
" clip-path="url(#p04e6227e37)" style="fill: #d62728; opacity: 0.98; stroke: #111111; stroke-width: 1.4; stroke-linejoin: miter"/>
   </g>
   <g id="patch_32">
    <path d="M 0 0 
z
" clip-path="url(#p04e6227e37)" style="fill: #d62728; opacity: 0.98; stroke: #111111; stroke-width: 1.4; stroke-linejoin: miter"/>
   </g>
   <g id="patch_33">
    <path d="M 1602.733338 484.982063 
L 1658.70139 484.982063 
L 1658.70139 444.931503 
L 1602.733338 444.931503 
z
" clip-path="url(#p04e6227e37)" style="fill: #d62728; opacity: 0.98; stroke: #111111; stroke-width: 1.4; stroke-linejoin: miter"/>
   </g>
   <g id="patch_34">
    <path d="M 1758.200149 484.982063 
L 1814.168201 484.982063 
L 1814.168201 70.783967 
L 1758.200149 70.783967 
z
" clip-path="url(#p04e6227e37)" style="fill: #d62728; opacity: 0.98; stroke: #111111; stroke-width: 1.4; stroke-linejoin: miter"/>
   </g>
   <g id="text_26">
    <!-- Gap Resistance -->
    <g style="fill: #262626" transform="translate(1388.126302 36.074062) scale(0.38 -0.38)">
     <defs>
      <path id="DejaVuSans-Bold-52" d="M 2297 2597 
Q 2675 2597 2839 2737 
Q 3003 2878 3003 3200 
Q 3003 3519 2839 3656 
Q 2675 3794 2297 3794 
L 1791 3794 
L 1791 2597 
L 2297 2597 
z
M 1791 1766 
L 1791 0 
L 588 0 
L 588 4666 
L 2425 4666 
Q 3347 4666 3776 4356 
Q 4206 4047 4206 3378 
Q 4206 2916 3982 2619 
Q 3759 2322 3309 2181 
Q 3556 2125 3751 1926 
Q 3947 1728 4147 1325 
L 4800 0 
L 3519 0 
L 2950 1159 
Q 2778 1509 2601 1637 
Q 2425 1766 2131 1766 
L 1791 1766 
z
" transform="scale(0.015625)"/>
      <path id="DejaVuSans-Bold-74" d="M 1759 4494 
L 1759 3500 
L 2913 3500 
L 2913 2700 
L 1759 2700 
L 1759 1216 
Q 1759 972 1856 886 
Q 1953 800 2241 800 
L 2816 800 
L 2816 0 
L 1856 0 
Q 1194 0 917 276 
Q 641 553 641 1216 
L 641 2700 
L 84 2700 
L 84 3500 
L 641 3500 
L 641 4494 
L 1759 4494 
z
" transform="scale(0.015625)"/>
      <path id="DejaVuSans-Bold-63" d="M 3366 3391 
L 3366 2478 
Q 3138 2634 2908 2709 
Q 2678 2784 2431 2784 
Q 1963 2784 1702 2511 
Q 1441 2238 1441 1747 
Q 1441 1256 1702 982 
Q 1963 709 2431 709 
Q 2694 709 2930 787 
Q 3166 866 3366 1019 
L 3366 103 
Q 3103 6 2833 -42 
Q 2563 -91 2291 -91 
Q 1344 -91 809 395 
Q 275 881 275 1747 
Q 275 2613 809 3098 
Q 1344 3584 2291 3584 
Q 2566 3584 2833 3536 
Q 3100 3488 3366 3391 
z
" transform="scale(0.015625)"/>
     </defs>
     <use xlink:href="#DejaVuSans-Bold-47"/>
     <use xlink:href="#DejaVuSans-Bold-61" x="82.080078"/>
     <use xlink:href="#DejaVuSans-Bold-70" x="149.560547"/>
     <use xlink:href="#DejaVuSans-Bold-20" x="221.142578"/>
     <use xlink:href="#DejaVuSans-Bold-52" x="255.957031"/>
     <use xlink:href="#DejaVuSans-Bold-65" x="332.958984"/>
     <use xlink:href="#DejaVuSans-Bold-73" x="400.78125"/>
     <use xlink:href="#DejaVuSans-Bold-69" x="460.302734"/>
     <use xlink:href="#DejaVuSans-Bold-73" x="494.580078"/>
     <use xlink:href="#DejaVuSans-Bold-74" x="554.101562"/>
     <use xlink:href="#DejaVuSans-Bold-61" x="601.904297"/>
     <use xlink:href="#DejaVuSans-Bold-6e" x="669.384766"/>
     <use xlink:href="#DejaVuSans-Bold-63" x="740.576172"/>
     <use xlink:href="#DejaVuSans-Bold-65" x="799.853516"/>
    </g>
   </g>
  </g>
  <g id="legend_1">
   <g id="line2d_21">
    <path d="M 659.660062 574.166875 
L 683.060062 574.166875 
L 706.460062 574.166875 
" style="fill: none; stroke: #1f77b4; stroke-width: 10; stroke-linecap: round"/>
   </g>
   <g id="text_27">
    <!-- Phosphorus (P) -->
    <g style="fill: #262626" transform="translate(722.060062 583.266875) scale(0.26 -0.26)">
     <defs>
      <path id="DejaVuSans-50" d="M 1259 4147 
L 1259 2394 
L 2053 2394 
Q 2494 2394 2734 2622 
Q 2975 2850 2975 3272 
Q 2975 3691 2734 3919 
Q 2494 4147 2053 4147 
L 1259 4147 
z
M 628 4666 
L 2053 4666 
Q 2838 4666 3239 4311 
Q 3641 3956 3641 3272 
Q 3641 2581 3239 2228 
Q 2838 1875 2053 1875 
L 1259 1875 
L 1259 0 
L 628 0 
L 628 4666 
z
" transform="scale(0.015625)"/>
      <path id="DejaVuSans-68" d="M 3513 2113 
L 3513 0 
L 2938 0 
L 2938 2094 
Q 2938 2591 2744 2837 
Q 2550 3084 2163 3084 
Q 1697 3084 1428 2787 
Q 1159 2491 1159 1978 
L 1159 0 
L 581 0 
L 581 4863 
L 1159 4863 
L 1159 2956 
Q 1366 3272 1645 3428 
Q 1925 3584 2291 3584 
Q 2894 3584 3203 3211 
Q 3513 2838 3513 2113 
z
" transform="scale(0.015625)"/>
      <path id="DejaVuSans-6f" d="M 1959 3097 
Q 1497 3097 1228 2736 
Q 959 2375 959 1747 
Q 959 1119 1226 758 
Q 1494 397 1959 397 
Q 2419 397 2687 759 
Q 2956 1122 2956 1747 
Q 2956 2369 2687 2733 
Q 2419 3097 1959 3097 
z
M 1959 3584 
Q 2709 3584 3137 3096 
Q 3566 2609 3566 1747 
Q 3566 888 3137 398 
Q 2709 -91 1959 -91 
Q 1206 -91 779 398 
Q 353 888 353 1747 
Q 353 2609 779 3096 
Q 1206 3584 1959 3584 
z
" transform="scale(0.015625)"/>
      <path id="DejaVuSans-73" d="M 2834 3397 
L 2834 2853 
Q 2591 2978 2328 3040 
Q 2066 3103 1784 3103 
Q 1356 3103 1142 2972 
Q 928 2841 928 2578 
Q 928 2378 1081 2264 
Q 1234 2150 1697 2047 
L 1894 2003 
Q 2506 1872 2764 1633 
Q 3022 1394 3022 966 
Q 3022 478 2636 193 
Q 2250 -91 1575 -91 
Q 1294 -91 989 -36 
Q 684 19 347 128 
L 347 722 
Q 666 556 975 473 
Q 1284 391 1588 391 
Q 1994 391 2212 530 
Q 2431 669 2431 922 
Q 2431 1156 2273 1281 
Q 2116 1406 1581 1522 
L 1381 1569 
Q 847 1681 609 1914 
Q 372 2147 372 2553 
Q 372 3047 722 3315 
Q 1072 3584 1716 3584 
Q 2034 3584 2315 3537 
Q 2597 3491 2834 3397 
z
" transform="scale(0.015625)"/>
      <path id="DejaVuSans-70" d="M 1159 525 
L 1159 -1331 
L 581 -1331 
L 581 3500 
L 1159 3500 
L 1159 2969 
Q 1341 3281 1617 3432 
Q 1894 3584 2278 3584 
Q 2916 3584 3314 3078 
Q 3713 2572 3713 1747 
Q 3713 922 3314 415 
Q 2916 -91 2278 -91 
Q 1894 -91 1617 61 
Q 1341 213 1159 525 
z
M 3116 1747 
Q 3116 2381 2855 2742 
Q 2594 3103 2138 3103 
Q 1681 3103 1420 2742 
Q 1159 2381 1159 1747 
Q 1159 1113 1420 752 
Q 1681 391 2138 391 
Q 2594 391 2855 752 
Q 3116 1113 3116 1747 
z
" transform="scale(0.015625)"/>
      <path id="DejaVuSans-72" d="M 2631 2963 
Q 2534 3019 2420 3045 
Q 2306 3072 2169 3072 
Q 1681 3072 1420 2755 
Q 1159 2438 1159 1844 
L 1159 0 
L 581 0 
L 581 3500 
L 1159 3500 
L 1159 2956 
Q 1341 3275 1631 3429 
Q 1922 3584 2338 3584 
Q 2397 3584 2469 3576 
Q 2541 3569 2628 3553 
L 2631 2963 
z
" transform="scale(0.015625)"/>
      <path id="DejaVuSans-75" d="M 544 1381 
L 544 3500 
L 1119 3500 
L 1119 1403 
Q 1119 906 1312 657 
Q 1506 409 1894 409 
Q 2359 409 2629 706 
Q 2900 1003 2900 1516 
L 2900 3500 
L 3475 3500 
L 3475 0 
L 2900 0 
L 2900 538 
Q 2691 219 2414 64 
Q 2138 -91 1772 -91 
Q 1169 -91 856 284 
Q 544 659 544 1381 
z
M 1991 3584 
L 1991 3584 
z
" transform="scale(0.015625)"/>
      <path id="DejaVuSans-20" transform="scale(0.015625)"/>
      <path id="DejaVuSans-28" d="M 1984 4856 
Q 1566 4138 1362 3434 
Q 1159 2731 1159 2009 
Q 1159 1288 1364 580 
Q 1569 -128 1984 -844 
L 1484 -844 
Q 1016 -109 783 600 
Q 550 1309 550 2009 
Q 550 2706 781 3412 
Q 1013 4119 1484 4856 
L 1984 4856 
z
" transform="scale(0.015625)"/>
      <path id="DejaVuSans-29" d="M 513 4856 
L 1013 4856 
Q 1481 4119 1714 3412 
Q 1947 2706 1947 2009 
Q 1947 1309 1714 600 
Q 1481 -109 1013 -844 
L 513 -844 
Q 928 -128 1133 580 
Q 1338 1288 1338 2009 
Q 1338 2731 1133 3434 
Q 928 4138 513 4856 
z
" transform="scale(0.015625)"/>
     </defs>
     <use xlink:href="#DejaVuSans-50"/>
     <use xlink:href="#DejaVuSans-68" x="60.302734"/>
     <use xlink:href="#DejaVuSans-6f" x="123.681641"/>
     <use xlink:href="#DejaVuSans-73" x="184.863281"/>
     <use xlink:href="#DejaVuSans-70" x="236.962891"/>
     <use xlink:href="#DejaVuSans-68" x="300.439453"/>
     <use xlink:href="#DejaVuSans-6f" x="363.818359"/>
     <use xlink:href="#DejaVuSans-72" x="425"/>
     <use xlink:href="#DejaVuSans-75" x="466.113281"/>
     <use xlink:href="#DejaVuSans-73" x="529.492188"/>
     <use xlink:href="#DejaVuSans-20" x="581.591797"/>
     <use xlink:href="#DejaVuSans-28" x="613.378906"/>
     <use xlink:href="#DejaVuSans-50" x="652.392578"/>
     <use xlink:href="#DejaVuSans-29" x="712.695312"/>
    </g>
   </g>
   <g id="line2d_22">
    <path d="M 969.498812 574.166875 
L 992.898812 574.166875 
L 1016.298812 574.166875 
" style="fill: none; stroke: #d62728; stroke-width: 10; stroke-linecap: round"/>
   </g>
   <g id="text_28">
    <!-- Arsenic (As) -->
    <g style="fill: #262626" transform="translate(1031.898813 583.266875) scale(0.26 -0.26)">
     <defs>
      <path id="DejaVuSans-41" d="M 2188 4044 
L 1331 1722 
L 3047 1722 
L 2188 4044 
z
M 1831 4666 
L 2547 4666 
L 4325 0 
L 3669 0 
L 3244 1197 
L 1141 1197 
L 716 0 
L 50 0 
L 1831 4666 
z
" transform="scale(0.015625)"/>
      <path id="DejaVuSans-65" d="M 3597 1894 
L 3597 1613 
L 953 1613 
Q 991 1019 1311 708 
Q 1631 397 2203 397 
Q 2534 397 2845 478 
Q 3156 559 3463 722 
L 3463 178 
Q 3153 47 2828 -22 
Q 2503 -91 2169 -91 
Q 1331 -91 842 396 
Q 353 884 353 1716 
Q 353 2575 817 3079 
Q 1281 3584 2069 3584 
Q 2775 3584 3186 3129 
Q 3597 2675 3597 1894 
z
M 3022 2063 
Q 3016 2534 2758 2815 
Q 2500 3097 2075 3097 
Q 1594 3097 1305 2825 
Q 1016 2553 972 2059 
L 3022 2063 
z
" transform="scale(0.015625)"/>
      <path id="DejaVuSans-6e" d="M 3513 2113 
L 3513 0 
L 2938 0 
L 2938 2094 
Q 2938 2591 2744 2837 
Q 2550 3084 2163 3084 
Q 1697 3084 1428 2787 
Q 1159 2491 1159 1978 
L 1159 0 
L 581 0 
L 581 3500 
L 1159 3500 
L 1159 2956 
Q 1366 3272 1645 3428 
Q 1925 3584 2291 3584 
Q 2894 3584 3203 3211 
Q 3513 2838 3513 2113 
z
" transform="scale(0.015625)"/>
      <path id="DejaVuSans-69" d="M 603 3500 
L 1178 3500 
L 1178 0 
L 603 0 
L 603 3500 
z
M 603 4863 
L 1178 4863 
L 1178 4134 
L 603 4134 
L 603 4863 
z
" transform="scale(0.015625)"/>
      <path id="DejaVuSans-63" d="M 3122 3366 
L 3122 2828 
Q 2878 2963 2633 3030 
Q 2388 3097 2138 3097 
Q 1578 3097 1268 2742 
Q 959 2388 959 1747 
Q 959 1106 1268 751 
Q 1578 397 2138 397 
Q 2388 397 2633 464 
Q 2878 531 3122 666 
L 3122 134 
Q 2881 22 2623 -34 
Q 2366 -91 2075 -91 
Q 1284 -91 818 406 
Q 353 903 353 1747 
Q 353 2603 823 3093 
Q 1294 3584 2113 3584 
Q 2378 3584 2631 3529 
Q 2884 3475 3122 3366 
z
" transform="scale(0.015625)"/>
     </defs>
     <use xlink:href="#DejaVuSans-41"/>
     <use xlink:href="#DejaVuSans-72" x="68.408203"/>
     <use xlink:href="#DejaVuSans-73" x="109.521484"/>
     <use xlink:href="#DejaVuSans-65" x="161.621094"/>
     <use xlink:href="#DejaVuSans-6e" x="223.144531"/>
     <use xlink:href="#DejaVuSans-69" x="286.523438"/>
     <use xlink:href="#DejaVuSans-63" x="314.306641"/>
     <use xlink:href="#DejaVuSans-20" x="369.287109"/>
     <use xlink:href="#DejaVuSans-28" x="401.074219"/>
     <use xlink:href="#DejaVuSans-41" x="440.087891"/>
     <use xlink:href="#DejaVuSans-73" x="508.496094"/>
     <use xlink:href="#DejaVuSans-29" x="560.595703"/>
    </g>
   </g>
  </g>
 </g>
 <defs>
  <clipPath id="pdf3ef5c854">
   <rect x="77.590625" y="50.074062" width="574.605333" height="434.908"/>
  </clipPath>
  <clipPath id="p3fa7ffb9aa">
   <rect x="671.635958" y="50.074062" width="574.605333" height="434.908"/>
  </clipPath>
  <clipPath id="p04e6227e37">
   <rect x="1265.681292" y="50.074062" width="574.605333" height="434.908"/>
  </clipPath>
 </defs>
</svg>
